<?xml version="1.0" encoding="UTF-8" standalone="no"?>
<!DOCTYPE svg PUBLIC "-//W3C//DTD SVG 1.1//EN"
 "http://www.w3.org/Graphics/SVG/1.1/DTD/svg11.dtd">
<!-- Generated by graphviz version 2.44.1 (20200629.0846)
 -->
<!-- Title: main Pages: 1 -->
<svg width="256pt" height="159pt"
 viewBox="0.00 0.00 256.00 159.46" xmlns="http://www.w3.org/2000/svg" xmlns:xlink="http://www.w3.org/1999/xlink">
<g id="graph0" class="graph" transform="scale(1 1) rotate(0) translate(4 155.46)">
<title>main</title>
<polygon fill="white" stroke="transparent" points="-4,4 -4,-155.46 252,-155.46 252,4 -4,4"/>
<!-- Node1 -->
<g id="node1" class="node">
<title>Node1</title>
<g id="a_node1"><a xlink:title="Main function.">
<polygon fill="#bfbfbf" stroke="black" points="0,-76.5 0,-95.5 38,-95.5 38,-76.5 0,-76.5"/>
<text text-anchor="middle" x="19" y="-83.5" font-family="Helvetica,sans-Serif" font-size="10.00">main</text>
</a>
</g>
</g>
<!-- Node2 -->
<g id="node2" class="node">
<title>Node2</title>
<g id="a_node2"><a xlink:href="../../de/dcf/binary__exponent_8cpp.html#ab638a87e8acc691b5488bc85b66f3ea2" target="_top" xlink:title=" ">
<polygon fill="white" stroke="black" points="196,-114.5 196,-133.5 248,-133.5 248,-114.5 196,-114.5"/>
<text text-anchor="middle" x="222" y="-121.5" font-family="Helvetica,sans-Serif" font-size="10.00">binExpo</text>
</a>
</g>
</g>
<!-- Node1&#45;&gt;Node2 -->
<g id="edge1" class="edge">
<title>Node1&#45;&gt;Node2</title>
<path fill="none" stroke="midnightblue" d="M25.49,-95.52C33.92,-109.06 51.46,-133.3 74,-143 111.38,-159.08 158.67,-148.05 189.36,-137.26"/>
<polygon fill="midnightblue" stroke="midnightblue" points="190.93,-140.41 199.09,-133.65 188.5,-133.84 190.93,-140.41"/>
</g>
<!-- Node3 -->
<g id="node3" class="node">
<title>Node3</title>
<g id="a_node3"><a xlink:href="../../de/dcf/binary__exponent_8cpp.html#a37bde0117b8e2cabb7b1d403f5379652" target="_top" xlink:title=" ">
<polygon fill="white" stroke="black" points="83,-114.5 83,-133.5 151,-133.5 151,-114.5 83,-114.5"/>
<text text-anchor="middle" x="117" y="-121.5" font-family="Helvetica,sans-Serif" font-size="10.00">binExpo_alt</text>
</a>
</g>
</g>
<!-- Node1&#45;&gt;Node3 -->
<g id="edge2" class="edge">
<title>Node1&#45;&gt;Node3</title>
<path fill="none" stroke="midnightblue" d="M38.06,-93.15C50.53,-98.09 67.5,-104.8 82.42,-110.71"/>
<polygon fill="midnightblue" stroke="midnightblue" points="81.27,-114.02 91.86,-114.44 83.85,-107.51 81.27,-114.02"/>
</g>
<!-- Node4 -->
<g id="node4" class="node">
<title>Node4</title>
<g id="a_node4"><a xlink:href="../../de/dcf/binary__exponent_8cpp.html#a805c9c31180aaae175b9bb2e55a04402" target="_top" xlink:title=" ">
<polygon fill="white" stroke="black" points="81.5,-76.5 81.5,-95.5 152.5,-95.5 152.5,-76.5 81.5,-76.5"/>
<text text-anchor="middle" x="117" y="-83.5" font-family="Helvetica,sans-Serif" font-size="10.00">binModExpo</text>
</a>
</g>
</g>
<!-- Node1&#45;&gt;Node4 -->
<g id="edge3" class="edge">
<title>Node1&#45;&gt;Node4</title>
<path fill="none" stroke="midnightblue" d="M38.06,-86C47.47,-86 59.43,-86 71.15,-86"/>
<polygon fill="midnightblue" stroke="midnightblue" points="71.31,-89.5 81.31,-86 71.31,-82.5 71.31,-89.5"/>
</g>
<!-- Node5 -->
<g id="node5" class="node">
<title>Node5</title>
<g id="a_node5"><a xlink:href="../../de/dcf/binary__exponent_8cpp.html#ad68f5849a1d56b9d4c8879adb74fd4a0" target="_top" xlink:title=" ">
<polygon fill="white" stroke="black" points="74,-38.5 74,-57.5 160,-57.5 160,-38.5 74,-38.5"/>
<text text-anchor="middle" x="117" y="-45.5" font-family="Helvetica,sans-Serif" font-size="10.00">binModExpo_alt</text>
</a>
</g>
</g>
<!-- Node1&#45;&gt;Node5 -->
<g id="edge5" class="edge">
<title>Node1&#45;&gt;Node5</title>
<path fill="none" stroke="midnightblue" d="M38.06,-78.85C50.53,-73.91 67.5,-67.2 82.42,-61.29"/>
<polygon fill="midnightblue" stroke="midnightblue" points="83.85,-64.49 91.86,-57.56 81.27,-57.98 83.85,-64.49"/>
</g>
<!-- Node6 -->
<g id="node6" class="node">
<title>Node6</title>
<g id="a_node6"><a target="_blank" xlink:href="http://en.cppreference.com/w/cpp/io/manip/endl.html#" target="_top" xlink:title=" ">
<polygon fill="white" stroke="black" points="90,-0.5 90,-19.5 144,-19.5 144,-0.5 90,-0.5"/>
<text text-anchor="middle" x="117" y="-7.5" font-family="Helvetica,sans-Serif" font-size="10.00">std::endl</text>
</a>
</g>
</g>
<!-- Node1&#45;&gt;Node6 -->
<g id="edge6" class="edge">
<title>Node1&#45;&gt;Node6</title>
<path fill="none" stroke="midnightblue" d="M27.12,-76.44C36.67,-64.14 54.68,-42.75 74,-29 76.38,-27.3 78.94,-25.7 81.58,-24.21"/>
<polygon fill="midnightblue" stroke="midnightblue" points="83.4,-27.21 90.7,-19.53 80.2,-20.98 83.4,-27.21"/>
</g>
<!-- Node4&#45;&gt;Node2 -->
<g id="edge4" class="edge">
<title>Node4&#45;&gt;Node2</title>
<path fill="none" stroke="midnightblue" d="M143.99,-95.59C156.75,-100.3 172.3,-106.03 186.08,-111.12"/>
<polygon fill="midnightblue" stroke="midnightblue" points="185.14,-114.5 195.73,-114.68 187.56,-107.93 185.14,-114.5"/>
</g>
</g>
</svg>
